# Blender 4.1.1
# www.blender.org
o Circle
v 0.000000 0.000000 -18.063362
v -14.840463 0.000000 -15.195867
v -24.969181 0.000000 -7.503792
v -27.170362 0.000000 2.570684
v -20.745146 0.000000 11.828988
v -7.733493 0.000000 17.331669
v 7.733493 0.000000 17.331669
v 20.745146 0.000000 11.828988
v 27.170362 0.000000 2.570684
v 24.969181 0.000000 -7.503792
v 14.840463 0.000000 -15.195867
vn -0.0000 1.0000 -0.0000
vt 0.598569 0.773056
vt 0.457039 0.959419
vt 0.271675 0.999919
vt 0.101327 0.881699
vt 0.000081 0.642292
vt 0.000081 0.357708
vt 0.101327 0.118301
vt 0.271674 0.000081
vt 0.457039 0.040581
vt 0.598569 0.226944
vt 0.651329 0.500000
s 0
f 2/1/1 3/2/1 4/3/1 5/4/1 6/5/1 7/6/1 8/7/1 9/8/1 10/9/1 11/10/1 1/11/1
